# File created by Blade
# Date/Time:  Thu Jan 22 16:25:57 2015
#---------------------------------------------------------
:version 1.10
:name HOM
:units
  mass 1.0
  length 1.000000
  angle deg
:documentation
     Acclaim Skeleton File
:root
   axis xyz
   order TX TY TZ RX RY RZ
   position 0.000000 0.000000 0.000000
   orientation 0 0 0
:bonedata
   begin
      id 1
      name RightUpLeg_dum
      direction -1.000000 0.000000 0.000000
      length 3.766986
      axis 0.0 0.0 0.0 xyz
   end
   begin
      id 2
      name LeftUpLeg_dum
      direction 1.000000 0.000000 0.000000
      length 3.766986
      axis 0.0 0.0 0.0 xyz
   end
   begin
      id 3
      name Spine_dum
      direction 0.000000 1.000000 0.000000
      length 7.779697
      axis 0.0 0.0 0.0 xyz
   end
   begin
      id 4
      name RightUpLeg
      direction 0.000000 -1.000000 0.000000
      length 18.017682
      axis 0.0 0.0 0.0 xyz
      dof rx ry rz
   end
   begin
      id 5
      name RightLeg
      direction 0.000000 -1.000000 0.000000
      length 16.881075
      axis 0.0 0.0 0.0 xyz
      dof rx ry rz
   end
   begin
      id 6
      name RightFoot
      direction 0.000000 -0.258819 0.965926
      length 5.770812
      axis 15.0 0.0 0.0 xyz
      dof rx ry rz
   end
   begin
      id 7
      name RightToeBase
      direction 0.000000 0.000000 1.000000
      length 2.952750
      axis 0.0 0.0 0.0 xyz
      dof rx ry rz
   end
   begin
      id 8
      name LeftUpLeg
      direction 0.000000 -1.000000 0.000000
      length 18.017682
      axis 0.0 0.0 0.0 xyz
      dof rx ry rz
   end
   begin
      id 9
      name LeftLeg
      direction 0.000000 -1.000000 0.000000
      length 16.881075
      axis 0.0 0.0 0.0 xyz
      dof rx ry rz
   end
   begin
      id 10
      name LeftFoot
      direction 0.000000 -0.258819 0.965926
      length 5.770812
      axis 15.0 0.0 0.0 xyz
      dof rx ry rz
   end
   begin
      id 11
      name LeftToeBase
      direction 0.000000 0.000000 1.000000
      length 2.952750
      axis 0.0 0.0 0.0 xyz
      dof rx ry rz
   end
   begin
      id 12
      name Spine
      direction 0.000000 1.000000 0.000000
      length 0.000000
      axis 0.0 0.0 0.0 xyz
      dof rx ry rz
   end
   begin
      id 13
      name Spine_dum1
      direction 0.000000 1.000000 0.000000
      length 10.941760
      axis 0.0 0.0 0.0 xyz
   end
   begin
      id 14
      name Spine_dum2
      direction 0.000000 1.000000 0.000000
      length 10.941760
      axis 0.0 0.0 0.0 xyz
   end
   begin
      id 15
      name Spine_dum3
      direction 0.000000 1.000000 0.000000
      length 16.646042
      axis 0.0 0.0 0.0 xyz
   end
   begin
      id 16
      name RightShoulder
      direction -1.000000 0.000000 0.000000
      length 7.708937
      axis 0.0 0.0 90.0 xyz
      dof rx ry rz
   end
   begin
      id 17
      name RightArm
      direction -1.000000 0.000000 0.000000
      length 11.521345
      axis 0.0 0.0 90.0 xyz
      dof rx ry rz
   end
   begin
      id 18
      name RightForeArm
      direction -1.000000 0.000000 0.000000
      length 10.175898
      axis 0.0 0.0 90.0 xyz
      dof ry rz rx
   end
   begin
      id 19
      name RightHand
      direction -1.000000 0.000000 0.000000
      length 0.000000
      axis 0.0 0.0 90.0 xyz
      dof rx ry rz
   end
   begin
      id 20
      name RightHand_dum1
      direction -1.000000 0.000000 0.000000
      length 3.937000
      axis 0.0 0.0 90.0 xyz
   end
   begin
      id 21
      name RightHand_dum2
      direction 0.000000 0.000000 0.000000
      length 0.000000
      axis 0.0 0.0 90.0 xyz
   end
   begin
      id 22
      name RightHandThumb1
      direction 0.000000 0.000000 1.000000
      length 3.937000
      axis 0.0 0.0 90.0 xyz
      dof rx rz ry
   end
   begin
      id 23
      name LeftShoulder
      direction 1.000000 0.000000 0.000000
      length 7.708937
      axis 0.0 0.0 -90.0 xyz
      dof rx ry rz
   end
   begin
      id 24
      name LeftArm
      direction 1.000000 0.000000 0.000000
      length 11.521345
      axis 0.0 0.0 -90.0 xyz
      dof rx ry rz
   end
   begin
      id 25
      name LeftForeArm
      direction 1.000000 0.000000 0.000000
      length 10.175898
      axis 0.0 0.0 -90.0 xyz
      dof ry rz rx
   end
   begin
      id 26
      name LeftHand
      direction 1.000000 0.000000 0.000000
      length 0.000000
      axis 0.0 0.0 -90.0 xyz
      dof rx ry rz
   end
   begin
      id 27
      name LeftHand_dum1
      direction 1.000000 0.000000 0.000000
      length 3.937000
      axis 0.0 0.0 -90.0 xyz
   end
   begin
      id 28
      name LeftHand_dum2
      direction 0.000000 0.000000 0.000000
      length 0.000000
      axis 0.0 0.0 -90.0 xyz
   end
   begin
      id 29
      name LeftHandThumb1
      direction 0.000000 0.000000 1.000000
      length 3.937000
      axis 0.0 0.0 -90.0 xyz
      dof rx rz ry
   end
   begin
      id 30
      name Head
      direction 0.000000 1.000000 0.000000
      length 4.527550
      axis 0.0 0.0 0.0 xyz
      dof rx ry rz
   end
:hierarchy
   begin
      root RightUpLeg_dum LeftUpLeg_dum Spine_dum
      RightUpLeg_dum RightUpLeg
      LeftUpLeg_dum LeftUpLeg
      Spine_dum Spine
      RightUpLeg RightLeg
      RightLeg RightFoot
      RightFoot RightToeBase
      LeftUpLeg LeftLeg
      LeftLeg LeftFoot
      LeftFoot LeftToeBase
      Spine Spine_dum1 Spine_dum2 Spine_dum3
      Spine_dum1 RightShoulder
      Spine_dum2 LeftShoulder
      Spine_dum3 Head
      RightShoulder RightArm
      RightArm RightForeArm
      RightForeArm RightHand
      RightHand RightHand_dum1 RightHand_dum2
      RightHand_dum2 RightHandThumb1
      LeftShoulder LeftArm
      LeftArm LeftForeArm
      LeftForeArm LeftHand
      LeftHand LeftHand_dum1 LeftHand_dum2
      LeftHand_dum2 LeftHandThumb1
   end

# File created by Blade
# Date/Time:  Thu Jan 22 16:25:48 2015
# Frame Rate: 120.000 fps
#------------------------------------------------------
:FULLY-SPECIFIED
:DEGREES
213
root -0.431736 37.852610 10.246003 6.158744 15.914247 15.710738
RightUpLeg -6.880647 -0.130826 -11.579891
RightLeg 15.538184 -0.000000 -0.000000
RightFoot -17.209419 -10.627708 14.468364
RightToeBase 12.775714 -0.000000 -0.000000
LeftUpLeg -2.793941 -10.975148 7.648226
LeftLeg 64.990383 -0.000000 -0.000000
LeftFoot 2.350963 2.389695 -24.628690
LeftToeBase 6.638539 -0.000000 -0.000000
Spine 20.323021 3.325299 -4.855415
RightShoulder -0.015145 -23.760542 -18.606559
RightArm 21.040729 -16.250307 57.676715
RightForeArm 10.481307 -0.000000 53.845993
RightHand 4.565703 -0.000000 -6.424495
RightHandThumb1 -24.326973 -0.000000 -32.862282
LeftShoulder -30.405719 38.321066 -8.211117
LeftArm 39.142146 -1.071114 -68.876105
LeftForeArm 32.251240 -0.000000 26.271300
LeftHand -15.226975 -0.000000 -3.481770
LeftHandThumb1 -26.253704 0.000000 33.147579
Head 11.834573 23.620155 -13.822808
214
root -0.452524 37.881194 10.289135 6.353713 15.973245 16.117942
RightUpLeg -6.823862 -0.265039 -11.930430
RightLeg 15.445686 -0.000000 -0.000000
RightFoot -17.282470 -10.517324 14.648947
RightToeBase 12.929891 -0.000000 -0.000000
LeftUpLeg -3.172053 -11.112437 8.097710
LeftLeg 67.907875 -0.000000 -0.000000
LeftFoot 2.791422 3.116142 -24.396421
LeftToeBase 6.877789 -0.000000 -0.000000
Spine 20.105730 3.526228 -5.280712
RightShoulder -0.139712 -23.859803 -18.501013
RightArm 20.938418 -16.098640 57.656595
RightForeArm 10.842998 0.000000 53.855159
RightHand 4.626990 -0.000000 -6.701452
RightHandThumb1 -24.326973 -0.000000 -32.862282
LeftShoulder -30.418864 38.224237 -8.324656
LeftArm 38.912142 -1.648015 -68.726958
LeftForeArm 32.567606 0.000000 25.851372
LeftHand -15.296760 -0.000000 -3.576590
LeftHandThumb1 -26.253704 0.000000 33.147579
Head 11.710301 23.591265 -13.871386
215
root -0.474295 37.909707 10.334569 6.543135 16.014594 16.514118
RightUpLeg -6.766504 -0.381046 -12.265295
RightLeg 15.350881 -0.000000 -0.000000
RightFoot -17.308873 -10.460345 14.738242
RightToeBase 12.985015 -0.000000 -0.000000
LeftUpLeg -3.510955 -11.242773 8.584262
LeftLeg 70.770786 -0.000000 -0.000000
LeftFoot 3.214971 3.771591 -24.286986
LeftToeBase 6.606156 -0.000000 -0.000000
Spine 19.870047 3.778064 -5.708929
RightShoulder -0.244399 -23.973978 -18.383278
RightArm 20.795976 -15.882710 57.690982
RightForeArm 10.954582 -0.000000 53.825353
RightHand 4.729849 -0.000000 -6.490407
RightHandThumb1 -24.326973 -0.000000 -32.862282
LeftShoulder -30.465922 38.209192 -8.477808
LeftArm 38.822800 -2.218822 -68.556799
LeftForeArm 32.879651 -0.000000 25.329227
LeftHand -15.315641 -0.000000 -3.575552
LeftHandThumb1 -26.253704 0.000000 33.147579
Head 11.665412 23.505408 -13.844656
216
root -0.498632 37.937890 10.369577 6.769190 16.067602 16.918491
RightUpLeg -6.754736 -0.493651 -12.608529
RightLeg 15.251135 -0.000000 -0.000000
RightFoot -17.337964 -10.427898 14.822511
RightToeBase 13.033438 -0.000000 -0.000000
LeftUpLeg -3.910686 -11.397373 9.103792
LeftLeg 73.617279 -0.000000 -0.000000
LeftFoot 3.368685 4.413636 -24.841702
LeftToeBase 7.404031 -0.000000 -0.000000
Spine 19.624879 4.012445 -6.152571
RightShoulder -0.319950 -23.971322 -18.303758
RightArm 20.579453 -15.804451 57.759401
RightForeArm 11.283902 -0.000000 53.797819
RightHand 4.783905 -0.000000 -6.792461
RightHandThumb1 -24.326973 -0.000000 -32.862282
LeftShoulder -30.492266 38.107375 -8.596572
LeftArm 38.673857 -2.724322 -68.311654
LeftForeArm 33.089030 -0.000000 24.833080
LeftHand -15.303099 -0.000000 -3.609692
LeftHandThumb1 -26.253704 0.000000 33.147579
Head 11.563492 23.399159 -13.851259
217
root -0.520900 37.964744 10.400509 7.030471 16.119161 17.340468
RightUpLeg -6.817731 -0.679551 -12.966899
RightLeg 15.235286 -0.000000 -0.000000
RightFoot -17.340772 -10.386105 14.802216
RightToeBase 12.963292 -0.000000 -0.000000
LeftUpLeg -4.331930 -11.555203 9.635957
LeftLeg 76.431141 -0.000000 -0.000000
LeftFoot 3.711023 4.899177 -24.978721
LeftToeBase 7.721073 -0.000000 -0.000000
Spine 19.338145 4.249050 -6.628895
RightShoulder -0.392987 -24.033626 -18.233410
RightArm 20.444354 -15.723787 57.812539
RightForeArm 11.585665 -0.000000 53.715563
RightHand 4.788413 -0.000000 -7.009805
RightHandThumb1 -24.326973 -0.000000 -32.862282
LeftShoulder -30.512709 38.042385 -8.680151
LeftArm 38.581850 -3.234293 -68.115594
LeftForeArm 33.235192 0.000000 24.301335
LeftHand -15.315028 -0.000000 -3.752995
LeftHandThumb1 -26.253704 0.000000 33.147579
Head 11.518497 23.267430 -13.811760
